<?xml version="1.0" encoding="UTF-8" standalone="no"?>
<!DOCTYPE svg PUBLIC "-//W3C//DTD SVG 1.1//EN" "http://www.w3.org/Graphics/SVG/1.1/DTD/svg11.dtd">
<svg width="100%" height="100%" viewBox="0 0 100 100" version="1.1" xmlns="http://www.w3.org/2000/svg" xmlns:xlink="http://www.w3.org/1999/xlink" xml:space="preserve" style="fill-rule:evenodd;clip-rule:evenodd;stroke-linejoin:round;stroke-miterlimit:1.41421;">
    <g transform="matrix(1,0,0,1,-32.6866,27.5542)">
        <path d="M55.258,40.731L91.829,40.731L91.829,36.16L55.258,36.16L55.258,40.731ZM55.258,22.446L91.829,22.446L91.829,17.874L55.258,17.874L55.258,22.446ZM111.258,38.446C111.258,37.493 110.925,36.684 110.258,36.017C109.591,35.351 108.782,35.017 107.829,35.017C106.877,35.017 106.068,35.351 105.401,36.017C104.734,36.684 104.401,37.493 104.401,38.446C104.401,39.398 104.734,40.208 105.401,40.874C106.068,41.541 106.877,41.874 107.829,41.874C108.782,41.874 109.591,41.541 110.258,40.874C110.925,40.208 111.258,39.398 111.258,38.446ZM55.258,4.16L91.829,4.16L91.829,-0.411L55.258,-0.411L55.258,4.16ZM111.258,20.16C111.258,19.208 110.925,18.398 110.258,17.731C109.591,17.065 108.782,16.731 107.829,16.731C106.877,16.731 106.068,17.065 105.401,17.731C104.734,18.398 104.401,19.208 104.401,20.16C104.401,21.112 104.734,21.922 105.401,22.589C106.068,23.255 106.877,23.589 107.829,23.589C108.782,23.589 109.591,23.255 110.258,22.589C110.925,21.922 111.258,21.112 111.258,20.16ZM111.258,1.874C111.258,0.922 110.925,0.112 110.258,-0.554C109.591,-1.221 108.782,-1.554 107.829,-1.554C106.877,-1.554 106.068,-1.221 105.401,-0.554C104.734,0.112 104.401,0.922 104.401,1.874C104.401,2.827 104.734,3.636 105.401,4.303C106.068,4.97 106.877,5.303 107.829,5.303C108.782,5.303 109.591,4.97 110.258,4.303C110.925,3.636 111.258,2.827 111.258,1.874ZM114.687,31.589L114.687,45.303L50.687,45.303L50.687,31.589L114.687,31.589ZM114.687,13.303L114.687,27.017L50.687,27.017L50.687,13.303L114.687,13.303ZM114.687,-4.983L114.687,8.731L50.687,8.731L50.687,-4.983L114.687,-4.983Z" style="fill:white;fill-rule:nonzero;"/>
    </g>
</svg>
