<?xml version="1.0" encoding="UTF-8" standalone="no"?>
<!DOCTYPE svg PUBLIC "-//W3C//DTD SVG 1.1//EN" "http://www.w3.org/Graphics/SVG/1.1/DTD/svg11.dtd">
<svg width="100%" height="100%" viewBox="0 0 100 100" version="1.1" xmlns="http://www.w3.org/2000/svg" xmlns:xlink="http://www.w3.org/1999/xlink" xml:space="preserve" style="fill-rule:evenodd;clip-rule:evenodd;stroke-linejoin:round;stroke-miterlimit:1.41421;">
    <g transform="matrix(1,0,0,1,-28.1152,27.5542)">
        <path d="M105.544,38.446L105.544,43.017C105.544,43.636 105.318,44.172 104.865,44.624C104.413,45.077 103.877,45.303 103.258,45.303L52.972,45.303C52.353,45.303 51.818,45.077 51.365,44.624C50.913,44.172 50.687,43.636 50.687,43.017L50.687,38.446C50.687,37.827 50.913,37.291 51.365,36.839C51.818,36.386 52.353,36.16 52.972,36.16L103.258,36.16C103.877,36.16 104.413,36.386 104.865,36.839C105.318,37.291 105.544,37.827 105.544,38.446ZM105.544,20.16L105.544,24.731C105.544,25.351 105.318,25.886 104.865,26.339C104.413,26.791 103.877,27.017 103.258,27.017L52.972,27.017C52.353,27.017 51.818,26.791 51.365,26.339C50.913,25.886 50.687,25.351 50.687,24.731L50.687,20.16C50.687,19.541 50.913,19.005 51.365,18.553C51.818,18.101 52.353,17.874 52.972,17.874L103.258,17.874C103.877,17.874 104.413,18.101 104.865,18.553C105.318,19.005 105.544,19.541 105.544,20.16ZM105.544,1.874L105.544,6.446C105.544,7.065 105.318,7.601 104.865,8.053C104.413,8.505 103.877,8.731 103.258,8.731L52.972,8.731C52.353,8.731 51.818,8.505 51.365,8.053C50.913,7.601 50.687,7.065 50.687,6.446L50.687,1.874C50.687,1.255 50.913,0.72 51.365,0.267C51.818,-0.185 52.353,-0.411 52.972,-0.411L103.258,-0.411C103.877,-0.411 104.413,-0.185 104.865,0.267C105.318,0.72 105.544,1.255 105.544,1.874Z" style="fill:white;fill-rule:nonzero;"/>
    </g>
</svg>
